<svg xmlns="http://www.w3.org/2000/svg" viewBox="0 0 640 640" role="img" aria-label="Abstract expanding field composition">
  <g fill="#25343B">
    <path fill="#D3EE8A" d="M295 92h50c0 42-10 76-25 76s-25-34-25-76Z"/>
    <path d="M244 182h50c0 42-10 76-25 76s-25-34-25-76Z"/>
    <path d="M346 182h50c0 42-10 76-25 76s-25-34-25-76Z"/>
    <path d="M193 272h50c0 42-10 76-25 76s-25-34-25-76Z"/>
    <path d="M295 272h50c0 42-10 76-25 76s-25-34-25-76Z"/>
    <path d="M397 272h50c0 42-10 76-25 76s-25-34-25-76Z"/>
    <path d="M142 362h50c0 42-10 76-25 76s-25-34-25-76Z"/>
    <path d="M244 362h50c0 42-10 76-25 76s-25-34-25-76Z"/>
    <path d="M346 362h50c0 42-10 76-25 76s-25-34-25-76Z"/>
    <path fill="#D3EE8A" d="M448 362h50c0 42-10 76-25 76s-25-34-25-76Z"/>
  </g>
</svg>
