<svg preserveAspectRatio="none" overflow="visible" style="display: block;" width="40" height="40" viewBox="0 0 40 40" fill="none" xmlns="http://www.w3.org/2000/svg">
<g id="fi_17851696">
<path id="Vector" d="M35.4997 20.8333L28.2442 15.5555C28.0775 15.4333 27.8497 15.4166 27.6664 15.5111C27.4775 15.6055 27.3608 15.7944 27.3608 16.0055V18.0889H20.8497C20.6442 18.0889 20.4497 18.1111 20.2553 18.1389C20.0553 18.1666 19.8664 18.2111 19.6775 18.2666C19.6608 18.2666 19.6386 18.2777 19.622 18.2833C19.4275 18.3444 19.2442 18.4222 19.0664 18.5111C19.0275 18.5333 18.9886 18.55 18.9497 18.5722C18.7775 18.6611 18.6164 18.7666 18.4664 18.8777C18.4331 18.9055 18.3997 18.9277 18.3664 18.9555C18.2164 19.0722 18.072 19.2 17.9386 19.3389C17.9331 19.3444 17.9275 19.35 17.922 19.3555C17.9164 19.3611 17.9109 19.3722 17.8997 19.3777C17.7942 19.4889 17.6997 19.6055 17.6109 19.7277C17.5831 19.7666 17.5553 19.8055 17.5275 19.8444C17.4442 19.9666 17.3609 20.0944 17.2886 20.2277C17.2831 20.2444 17.272 20.2555 17.2664 20.2722C17.1942 20.4166 17.1275 20.5666 17.072 20.7166C17.0553 20.7555 17.0442 20.8 17.0275 20.8389C16.972 21 16.9275 21.1611 16.8942 21.3277C16.8609 21.5 16.8386 21.6722 16.8275 21.85C16.822 21.9389 16.8164 22.0333 16.8164 22.1222V37.7666C16.8164 38.0722 17.0664 38.3222 17.372 38.3222C17.6775 38.3222 17.9275 38.0722 17.9275 37.7666V22.1222C17.9275 20.5055 19.2442 19.1889 20.8608 19.1889H27.9275C28.2331 19.1889 28.4831 18.9389 28.4831 18.6333V17.0833L34.2386 21.2722L28.4831 25.4611V23.9111C28.4831 23.6055 28.2331 23.3555 27.9275 23.3555H23.3108C23.1553 23.3555 23.0108 23.3889 22.872 23.4389C22.8608 23.4389 22.8497 23.4444 22.8386 23.45C22.3997 23.6333 22.0886 24.0666 22.0886 24.5722V37.7666C22.0886 38.0722 22.3386 38.3222 22.6442 38.3222C22.9497 38.3222 23.1997 38.0722 23.1997 37.7666V24.5722C23.1997 24.5166 23.2497 24.4666 23.3053 24.4666H27.3664V26.55C27.3664 26.7611 27.4831 26.95 27.672 27.0444C27.8609 27.1389 28.0831 27.1222 28.2497 27L35.5053 21.7222C35.6497 21.6166 35.7331 21.45 35.7331 21.2722C35.7331 21.0944 35.6497 20.9277 35.5053 20.8222L35.4997 20.8333Z" fill="#1A1F2D"/>
<path id="Vector_2" d="M25.7275 9.26664L20.4497 1.89998C20.2441 1.60553 19.7553 1.60553 19.5497 1.89998L14.2719 9.26664C14.1497 9.43887 14.133 9.66109 14.2275 9.84442C14.3219 10.0333 14.5108 10.15 14.7219 10.15H16.8053V16.7722H12.6386V14.6889C12.6386 14.4778 12.5219 14.2889 12.333 14.1944C12.1497 14.1 11.9275 14.1166 11.7553 14.2389L4.4997 19.5166C4.35525 19.6222 4.27192 19.7889 4.27192 19.9666C4.27192 20.1444 4.35525 20.3111 4.4997 20.4166L11.7553 25.6944C11.8553 25.7611 11.9664 25.8 12.083 25.8C12.1664 25.8 12.2553 25.7778 12.333 25.7389C12.5219 25.6444 12.6386 25.45 12.6386 25.2444V23.1611H15.6941V22.1333C15.6941 22.1333 15.6941 22.0778 15.6997 22.05H12.083C11.7775 22.05 11.5275 22.2944 11.5275 22.6055V24.15L5.77192 19.9666L11.5275 15.7778V17.3278C11.5275 17.6333 11.7775 17.8833 12.083 17.8833H17.9164V9.59442C17.9164 9.28331 17.6664 9.03887 17.3608 9.03887H15.8053L19.9997 3.17776L24.1941 9.03887H22.6386C22.333 9.03887 22.083 9.28331 22.083 9.59442V16.9778H23.1941V10.15H25.2775C25.4886 10.15 25.6775 10.0333 25.7719 9.84442C25.8664 9.66109 25.8497 9.43887 25.7275 9.26664Z" fill="#1A1F2D"/>
</g>
</svg>
